STARTFONT 2.1
COMMENT Copyright (C) 1990-1991 EWT Consulting
COMMENT Portions Copyright (C) 1994-1995 Cronyx Ltd.
COMMENT Changes Copyright (C) 1996-1997 by Andrey A. Chernov, Moscow, Russia.
COMMENT Modified by Serge Vakulenko, <vak@cronyx.ru>
COMMENT This software may be used, modified, copied, distributed, and sold,
COMMENT in both source and binary form provided that the copyright
COMMENT and these terms are retained. Under no circumstances is the author
COMMENT responsible for the proper functioning of this software, nor does
COMMENT the author assume any responsibility for damages incurred with its use.
COMMENT $XFree86: xc/fonts/bdf/cyrillic/crox6ho.bdf,v 3.2.4.1 1998/02/01 16:04:11 robin Exp $
FONT -Cronyx-Helvetica-Medium-O-Normal--34-240-100-100-P-130-KOI8-R
SIZE 24 96 96
FONTBOUNDINGBOX 42 33 -1 -7
STARTPROPERTIES 20
DEFAULT_CHAR 32
FONT_ASCENT 29
FONT_DESCENT 8
SPACING "P"
FONTNAME_REGISTRY ""
FOUNDRY "Cronyx"
FAMILY_NAME "Helvetica"
WEIGHT_NAME "Medium"
SLANT "O"
SETWIDTH_NAME "Normal"
ADD_STYLE_NAME ""
AVERAGE_WIDTH 130
CHARSET_REGISTRY "KOI8"
CHARSET_ENCODING "R"
PIXEL_SIZE 34
POINT_SIZE 240
RESOLUTION_X 100
RESOLUTION_Y 100
COPYRIGHT "Copyright (C) 1990, 1991 EWT Consulting, Portions Copyright (C) 1994 Cronyx Ltd., Portions Copyright (C) 1996-1997 by Andrey A. Chernov, Moscow, Russia."
_XMBDFED_INFO "Edited with xmbdfed 2.7."
ENDPROPERTIES
CHARS 165
STARTCHAR space
ENCODING 32
SWIDTH 281 0
DWIDTH 9 0
BBX 0 0 -1 0
BITMAP
ENDCHAR
STARTCHAR exclam
ENCODING 33
SWIDTH 281 0
DWIDTH 9 0
BBX 10 23 2 0
BITMAP
01C0
01C0
01C0
0380
0380
0380
0700
0700
0700
0E00
0E00
0E00
1C00
1C00
0800
1000
1000
0000
0000
0000
7000
E000
E000
ENDCHAR
STARTCHAR quotedbl
ENCODING 34
SWIDTH 343 0
DWIDTH 11 0
BBX 11 8 0 15
BITMAP
38E0
38E0
38E0
71C0
71C0
2080
4100
4100
ENDCHAR
STARTCHAR numbersign
ENCODING 35
SWIDTH 562 0
DWIDTH 18 0
BBX 23 23 0 0
BITMAP
000618
000618
000618
000C30
001C70
001860
03FFF8
03FFF8
0030C0
00E380
00C300
00C300
018600
038E00
030C00
3FFF80
3FFF80
061800
1C7000
186000
186000
30C000
30C000
ENDCHAR
STARTCHAR dollar
ENCODING 36
SWIDTH 562 0
DWIDTH 18 0
BBX 25 28 0 -3
BITMAP
0000C000
0000C000
0007E000
001FF800
003DBC00
00733800
00E31C00
00E31C00
01C60000
00E60000
00F60000
00FC0000
007F0000
001FC000
001FC000
0019E000
0018E000
0030E000
1C30E000
1C30E000
3861C000
1C638000
1E678000
1FFE0000
07F80000
00C00000
01800000
01800000
ENDCHAR
STARTCHAR percent
ENCODING 37
SWIDTH 875 0
DWIDTH 28 0
BBX 31 23 1 0
BITMAP
003C01C0
00FF0180
00C30380
03030600
03030E00
03030C00
06063800
030C3000
03FC7000
01E0C000
0001C000
00018000
00070000
00060F00
000E3FC0
00186180
0038C0C0
0030C0C0
00E18180
00C18180
01C0C300
0301FE00
07007800
ENDCHAR
STARTCHAR ampersand
ENCODING 38
SWIDTH 687 0
DWIDTH 22 0
BBX 27 23 1 0
BITMAP
00060000
001F8000
003FC000
00738000
00E1C000
00E1C000
01C38000
00E70000
00FF0000
00FC0000
01F80000
03FC0000
0F3C7000
0E1E7000
1E0FE000
380FC000
38078000
38038000
780F8000
3C1FC000
3FFDE000
3FF1E000
0FC0F000
ENDCHAR
STARTCHAR quoteright
ENCODING 39
SWIDTH 218 0
DWIDTH 7 0
BBX 5 8 1 15
BITMAP
38
38
38
70
70
20
40
40
ENDCHAR
STARTCHAR parenleft
ENCODING 40
SWIDTH 343 0
DWIDTH 11 0
BBX 17 30 2 -7
BITMAP
000180
000700
000E00
001C00
003800
007000
007000
00E000
01C000
01C000
038000
038000
038000
070000
070000
070000
0E0000
0E0000
0E0000
1C0000
1C0000
1C0000
1C0000
1C0000
1C0000
1C0000
1C0000
0E0000
0E0000
060000
ENDCHAR
STARTCHAR parenright
ENCODING 41
SWIDTH 343 0
DWIDTH 11 0
BBX 17 30 0 -7
BITMAP
003000
007000
003800
001C00
003800
001C00
001C00
003800
001C00
001C00
003800
003800
003800
007000
007000
007000
00E000
00E000
00E000
01C000
01C000
01C000
070000
070000
070000
1C0000
1C0000
380000
E00000
C00000
ENDCHAR
STARTCHAR asterisk
ENCODING 42
SWIDTH 375 0
DWIDTH 12 0
BBX 13 9 0 14
BITMAP
0180
0300
1B60
3FF0
1F80
0F00
1F80
7380
2100
ENDCHAR
STARTCHAR plus
ENCODING 43
SWIDTH 593 0
DWIDTH 19 0
BBX 23 19 0 2
BITMAP
000700
000700
000E00
000E00
000E00
001C00
001C00
001C00
1FFFF0
1FFFF0
1FFFF0
007000
007000
007000
00E000
00E000
00E000
01C000
01C000
ENDCHAR
STARTCHAR comma
ENCODING 44
SWIDTH 281 0
DWIDTH 9 0
BBX 5 6 2 -3
BITMAP
38
70
70
10
40
80
ENDCHAR
STARTCHAR minus
ENCODING 45
SWIDTH 312 0
DWIDTH 10 0
BBX 8 2 0 6
BITMAP
FF
FF
ENDCHAR
STARTCHAR period
ENCODING 46
SWIDTH 281 0
DWIDTH 9 0
BBX 4 3 2 0
BITMAP
70
E0
E0
ENDCHAR
STARTCHAR slash
ENCODING 47
SWIDTH 281 0
DWIDTH 9 0
BBX 16 23 -1 0
BITMAP
0007
0007
0007
001C
001C
001C
0070
0070
0070
01C0
01C0
01C0
0380
0700
0700
0E00
1C00
1C00
3800
3800
7000
E000
E000
ENDCHAR
STARTCHAR zero
ENCODING 48
SWIDTH 562 0
DWIDTH 18 0
BBX 21 23 1 0
BITMAP
000F00
003FC0
007FE0
01E1E0
01C0E0
03C0F0
0700E0
0700E0
0700E0
0E01C0
0E01C0
0E01C0
1C0380
1C0380
1C0380
380700
380700
3C0F00
381C00
3C3C00
1FF800
1FE000
078000
ENDCHAR
STARTCHAR one
ENCODING 49
SWIDTH 500 0
DWIDTH 16 0
BBX 13 23 3 0
BITMAP
0018
0018
0038
00F0
03F0
03F0
07E0
00E0
00E0
01C0
01C0
01C0
0380
0380
0380
0700
0700
0700
0E00
0E00
0E00
1C00
1C00
ENDCHAR
STARTCHAR two
ENCODING 50
SWIDTH 562 0
DWIDTH 18 0
BBX 23 23 0 0
BITMAP
000780
001FE0
003FF0
00F0F0
00E070
01C038
038070
000070
000070
0001C0
0003C0
000F80
007E00
00F800
01E000
078000
0F0000
0E0000
380000
380000
7FFF80
FFFF00
FFFF00
ENDCHAR
STARTCHAR three
ENCODING 51
SWIDTH 562 0
DWIDTH 18 0
BBX 23 23 0 0
BITMAP
000780
001FE0
003FF0
00F0F0
00E070
01C038
038070
000070
0000E0
001FC0
001F80
001FC0
0003C0
0001C0
0000E0
0001C0
3801C0
3801C0
380700
3C0F00
1FFE00
1FF800
07E000
ENDCHAR
STARTCHAR four
ENCODING 52
SWIDTH 562 0
DWIDTH 18 0
BBX 23 23 0 0
BITMAP
0000F0
0001F0
0001F0
0007E0
000FE0
000EE0
003DC0
0079C0
0071C0
01E380
03C380
038380
0F0700
0E0700
1E0700
3FFFC0
3FFFC0
3FFFC0
001C00
001C00
001C00
003800
003800
ENDCHAR
STARTCHAR five
ENCODING 53
SWIDTH 562 0
DWIDTH 18 0
BBX 23 23 0 0
BITMAP
003FFC
003FFC
003FFC
007000
00E000
00E000
01C000
01DF80
03FFE0
07FFE0
0781E0
0700F0
0000E0
0000E0
0000E0
0001C0
3801C0
3801C0
380700
3C0F00
1FFE00
1FF800
07E000
ENDCHAR
STARTCHAR six
ENCODING 54
SWIDTH 562 0
DWIDTH 18 0
BBX 22 23 1 0
BITMAP
000F80
003FE0
007FF0
01F1E0
01C070
03C070
070000
070000
071E00
0EFF00
0FFF80
0FC7C0
1E0380
1E03C0
1C01C0
380380
380380
3C0780
380E00
3E3E00
1FFC00
1FF000
07C000
ENDCHAR
STARTCHAR seven
ENCODING 55
SWIDTH 562 0
DWIDTH 18 0
BBX 23 23 0 0
BITMAP
01FFFE
01FFFE
01FFFE
00003C
000078
0000F0
0001C0
0003C0
000380
000F00
000E00
001E00
003800
003800
007800
00E000
00E000
01E000
038000
038000
038000
070000
070000
ENDCHAR
STARTCHAR eight
ENCODING 56
SWIDTH 562 0
DWIDTH 18 0
BBX 23 23 0 0
BITMAP
000780
001FE0
003FF0
00F0F0
00E070
01C038
038070
038070
01C0E0
03FFC0
01FF80
03FFC0
0F03C0
0E01C0
1C00E0
3801C0
3801C0
3801C0
380700
3C0F00
1FFE00
1FF800
07E000
ENDCHAR
STARTCHAR nine
ENCODING 57
SWIDTH 562 0
DWIDTH 18 0
BBX 22 23 0 0
BITMAP
000F80
003FE0
007FF0
01F1F0
01C070
03C078
070070
070070
070070
0F01E0
0701E0
07C7E0
07FFC0
03FDC0
00F1C0
000380
000380
1C0780
380E00
1E3E00
1FFC00
1FF000
07C000
ENDCHAR
STARTCHAR colon
ENCODING 58
SWIDTH 281 0
DWIDTH 9 0
BBX 8 16 2 0
BITMAP
07
07
0E
00
00
00
00
00
00
00
00
00
00
70
E0
E0
ENDCHAR
STARTCHAR semicolon
ENCODING 59
SWIDTH 281 0
DWIDTH 9 0
BBX 9 19 2 -3
BITMAP
0380
0380
0700
0000
0000
0000
0000
0000
0000
0000
0000
0000
0000
3800
7000
7000
1000
4000
8000
ENDCHAR
STARTCHAR less
ENCODING 60
SWIDTH 593 0
DWIDTH 19 0
BBX 21 16 0 3
BITMAP
000018
000078
0003F0
000FC0
003F00
01F800
07E000
1F8000
3F0000
0FC000
03F000
01F800
007E00
001F80
000F00
000300
ENDCHAR
STARTCHAR equal
ENCODING 61
SWIDTH 593 0
DWIDTH 19 0
BBX 20 9 0 7
BITMAP
1FFFF0
3FFFE0
3FFFE0
000000
000000
000000
7FFFC0
FFFF80
FFFF80
ENDCHAR
STARTCHAR greater
ENCODING 62
SWIDTH 593 0
DWIDTH 19 0
BBX 21 16 1 3
BITMAP
060000
078000
0FC000
03F000
00FC00
007E00
001F80
0007E0
000FC0
003F00
00FC00
07E000
1F8000
7E0000
F00000
C00000
ENDCHAR
STARTCHAR question
ENCODING 63
SWIDTH 531 0
DWIDTH 17 0
BBX 22 23 0 0
BITMAP
000F80
003FE0
007FF0
01E0F0
01C070
038038
070070
000070
000070
0001C0
0003C0
000780
001E00
003C00
003800
00E000
00E000
000000
000000
000000
01C000
038000
038000
ENDCHAR
STARTCHAR at
ENCODING 64
SWIDTH 937 0
DWIDTH 30 0
BBX 36 26 0 -3
BITMAP
00001FC000
0000FFF800
0003E03E00
000E000E00
001C000700
0038000380
00E01E0300
00C07F6180
0180E1E180
0303018180
0303018180
0606018180
0C0C060300
0C18060300
0C18060600
1830180C00
0C30381800
0C187C3800
181FDFE000
0C0F8F8000
0E00000000
0E00000000
0780000000
03E01C0000
01FFF00000
003FC00000
ENDCHAR
STARTCHAR A
ENCODING 65
SWIDTH 687 0
DWIDTH 22 0
BBX 28 23 0 0
BITMAP
0001F000
0001F000
0003F800
0007F000
00077000
000F7800
001C7000
001C7000
003C7800
00707000
00F07800
00E03800
01C07000
03C07800
03803800
07FFF000
0FFFF800
0FFFF800
3C007800
38003800
38003800
F0007800
E0003800
ENDCHAR
STARTCHAR B
ENCODING 66
SWIDTH 656 0
DWIDTH 21 0
BBX 24 23 2 0
BITMAP
01FFE0
01FFF8
01FFFC
038038
03801C
03801C
070038
070038
070070
0FFFE0
0FFFC0
0FFFE0
1C01E0
1C00E0
1C0070
3800E0
3800E0
3800E0
7003C0
700780
7FFF80
FFFE00
FFF800
ENDCHAR
STARTCHAR C
ENCODING 67
SWIDTH 718 0
DWIDTH 23 0
BBX 28 23 1 0
BITMAP
0001F800
000FFF00
001FFF80
007C0F80
00F003C0
01E001E0
038001C0
038001C0
07000000
0E000000
0E000000
0E000000
1C000000
1C000000
1C000000
1C000E00
1C000E00
1E001E00
1E007800
0F81F000
07FFE000
07FF8000
00FC0000
ENDCHAR
STARTCHAR D
ENCODING 68
SWIDTH 718 0
DWIDTH 23 0
BBX 26 23 2 0
BITMAP
01FFC000
01FFF800
01FFFC00
03807C00
03801E00
03800F00
07000E00
07000E00
07000700
0E000E00
0E000E00
0E000E00
1C001C00
1C001C00
1C001C00
38007000
38007000
3800F000
7003C000
700F8000
7FFF0000
FFFC0000
FFE00000
ENDCHAR
STARTCHAR E
ENCODING 69
SWIDTH 656 0
DWIDTH 21 0
BBX 24 23 2 0
BITMAP
01FFFF
01FFFF
01FFFF
038000
038000
038000
070000
070000
070000
0FFFE0
0FFFE0
0FFFE0
1C0000
1C0000
1C0000
380000
380000
380000
700000
700000
7FFFC0
FFFF80
FFFF80
ENDCHAR
STARTCHAR F
ENCODING 70
SWIDTH 625 0
DWIDTH 20 0
BBX 24 23 2 0
BITMAP
01FFFF
01FFFF
01FFFF
038000
038000
038000
070000
070000
070000
0FFFC0
0FFFC0
0FFFC0
1C0000
1C0000
1C0000
380000
380000
380000
700000
700000
700000
E00000
E00000
ENDCHAR
STARTCHAR G
ENCODING 71
SWIDTH 781 0
DWIDTH 25 0
BBX 28 23 1 0
BITMAP
0001F800
000FFF00
001FFF80
007C0F80
00F003C0
01E001E0
038001C0
038001C0
07000000
0E000000
0E000000
0E00FF80
1C01FF00
1C01FF00
1C000700
1C000E00
1C001E00
1E001E00
1E007C00
0F81FC00
07FFDC00
07FF3800
00FC3800
ENDCHAR
STARTCHAR H
ENCODING 72
SWIDTH 718 0
DWIDTH 23 0
BBX 25 23 2 0
BITMAP
01C00380
01C00380
01C00380
03800700
03800700
03800700
07000E00
07000E00
07000E00
0FFFFC00
0FFFFC00
0FFFFC00
1C003800
1C003800
1C003800
38007000
38007000
38007000
7000E000
7000E000
7000E000
E001C000
E001C000
ENDCHAR
STARTCHAR I
ENCODING 73
SWIDTH 250 0
DWIDTH 8 0
BBX 10 23 2 0
BITMAP
01C0
01C0
01C0
0380
0380
0380
0700
0700
0700
0E00
0E00
0E00
1C00
1C00
1C00
3800
3800
3800
7000
7000
7000
E000
E000
ENDCHAR
STARTCHAR J
ENCODING 74
SWIDTH 500 0
DWIDTH 16 0
BBX 20 23 0 0
BITMAP
000070
000070
000070
0000E0
0000E0
0000E0
0001C0
0001C0
0001C0
000380
000380
000380
000700
000700
1C0700
380E00
380E00
380E00
783C00
3C7800
3FF800
3FE000
0F8000
ENDCHAR
STARTCHAR K
ENCODING 75
SWIDTH 656 0
DWIDTH 21 0
BBX 26 23 1 0
BITMAP
01C00F00
01C01E00
01C03C00
0380F000
0381E000
0383C000
070F0000
071E0000
073C0000
0EF00000
0FF00000
0FF80000
1F780000
1E3C0000
1C1E0000
381E0000
380F0000
38078000
70078000
7003C000
7001E000
E001E000
E000E000
ENDCHAR
STARTCHAR L
ENCODING 76
SWIDTH 562 0
DWIDTH 18 0
BBX 22 23 2 0
BITMAP
01C000
01C000
01C000
038000
038000
038000
070000
070000
070000
0E0000
0E0000
0E0000
1C0000
1C0000
1C0000
380000
380000
380000
700000
700000
7FFF00
FFFE00
FFFE00
ENDCHAR
STARTCHAR M
ENCODING 77
SWIDTH 812 0
DWIDTH 26 0
BBX 28 23 2 0
BITMAP
01E000F0
01F001F0
01F001F0
03E003E0
03F007E0
03F007E0
07E00FC0
07F01FC0
07701DC0
0EE03B80
0EF07B80
0E707380
1CE0E700
1CF1E700
1C71C700
38E38E00
38F78E00
38770E00
70EE1C00
70FE1C00
707C1C00
E0F83800
E0F83800
ENDCHAR
STARTCHAR N
ENCODING 78
SWIDTH 750 0
DWIDTH 24 0
BBX 26 23 2 0
BITMAP
01E001C0
01F001C0
01F001C0
03F00380
03F80380
03B80380
07780700
073C0700
071C0700
0E3C0E00
0E1E0E00
0E0E0E00
1C1E1C00
1C0F1C00
1C071C00
380F3800
3807B800
3803B800
7007F000
7003F000
7001F000
E003E000
E001E000
ENDCHAR
STARTCHAR O
ENCODING 79
SWIDTH 781 0
DWIDTH 25 0
BBX 29 23 1 0
BITMAP
0001F800
000FFF00
001FFF80
007C0F80
00F003C0
01E001E0
038001C0
038001C0
070000E0
0E0001C0
0E0001C0
0E0001C0
1C000380
1C000380
1C000380
1C000E00
1C000E00
1E001E00
1E007800
0F81F000
07FFE000
07FF8000
00FC0000
ENDCHAR
STARTCHAR P
ENCODING 80
SWIDTH 656 0
DWIDTH 21 0
BBX 24 23 2 0
BITMAP
01FFF0
01FFFC
01FFFE
03803C
03801E
03800E
07001C
07001C
07001C
0E0078
0E00F0
0FFFF0
1FFFC0
1FFF00
1C0000
380000
380000
380000
700000
700000
700000
E00000
E00000
ENDCHAR
STARTCHAR Q
ENCODING 81
SWIDTH 781 0
DWIDTH 25 0
BBX 29 23 1 0
BITMAP
0001F800
000FFF00
001FFF80
007C0F80
00F003C0
01E001E0
038001C0
038001C0
070000E0
0E0001C0
0E0001C0
0E0001C0
1C000380
1C000380
1C006380
1C01EE00
1C00FE00
1E007E00
1E007800
0F81FC00
07FFFE00
07FF9C00
00FC0800
ENDCHAR
STARTCHAR R
ENCODING 82
SWIDTH 687 0
DWIDTH 22 0
BBX 25 23 2 0
BITMAP
01FFF000
01FFFC00
01FFFE00
03801C00
03800E00
03800E00
07001C00
07001C00
07003C00
0E00F000
0FFFF000
0FFFE000
1FFFE000
1C01E000
1C00F000
3800E000
3800E000
3800E000
7001C000
7001C000
7001C000
E003C000
E001C000
ENDCHAR
STARTCHAR S
ENCODING 83
SWIDTH 656 0
DWIDTH 21 0
BBX 26 23 0 0
BITMAP
000FF800
003FFE00
007FFF00
00F01E00
01E00F00
01C00700
03800000
03C00000
01E00000
03FC0000
01FFE000
007FF800
000FF800
00007800
00003C00
00003800
38003800
3C003800
3800F000
3E01E000
1FFFE000
1FFF8000
07FE0000
ENDCHAR
STARTCHAR T
ENCODING 84
SWIDTH 625 0
DWIDTH 20 0
BBX 26 23 0 0
BITMAP
01FFFFC0
01FFFFC0
01FFFFC0
00038000
00038000
00038000
00070000
00070000
00070000
000E0000
000E0000
000E0000
001C0000
001C0000
001C0000
00380000
00380000
00380000
00700000
00700000
00700000
00E00000
00E00000
ENDCHAR
STARTCHAR U
ENCODING 85
SWIDTH 718 0
DWIDTH 23 0
BBX 25 23 2 0
BITMAP
01C00380
01C00380
01C00380
03800700
03800700
03800700
07000E00
07000E00
07000E00
0E001C00
0E001C00
0E001C00
1C003800
1C003800
1C003800
38007000
38007000
3C00F000
3801C000
3E07C000
1FFF8000
1FFE0000
07F80000
ENDCHAR
STARTCHAR V
ENCODING 86
SWIDTH 687 0
DWIDTH 22 0
BBX 28 23 0 0
BITMAP
01C00070
01E000F0
00E000E0
01C001C0
01E003C0
00E00380
01E00F00
00E00E00
00E00E00
01E03C00
00E03800
00E03800
01E0F000
00E0E000
00F1E000
00E38000
00E38000
00F78000
00EE0000
00FE0000
00FE0000
00F80000
00F80000
ENDCHAR
STARTCHAR W
ENCODING 87
SWIDTH 968 0
DWIDTH 31 0
BBX 37 23 0 0
BITMAP
01C00F0038
01C00F0038
01C00F0038
03C03F00F0
01C03F00E0
01C03F00E0
03C0FF03C0
01C0E70380
01C0E70380
03C3CF0F00
01C3870E00
01C3870E00
03CF0F3C00
01CE073800
01CE073800
03FC0FF000
01F807E000
01F807E000
03F00FC000
01E0078000
01E0078000
03C00F0000
03C00F0000
ENDCHAR
STARTCHAR X
ENCODING 88
SWIDTH 656 0
DWIDTH 21 0
BBX 27 23 0 0
BITMAP
00E001C0
00F003C0
00700380
00F00F00
00781E00
003C3C00
00387000
003CF000
001FE000
001F8000
000F0000
000F0000
003F0000
007F8000
00738000
01E78000
03C3C000
0781E000
0E01C000
1E01E000
3C00F000
F000F000
E0007000
ENDCHAR
STARTCHAR Y
ENCODING 89
SWIDTH 687 0
DWIDTH 22 0
BBX 28 23 0 0
BITMAP
01C00070
01E000F0
00F001E0
00F00780
00700700
00780F00
00783C00
003C7800
001C7000
003DE000
001FC000
000F8000
000E0000
000E0000
000E0000
001C0000
001C0000
001C0000
00380000
00380000
00380000
00700000
00700000
ENDCHAR
STARTCHAR Z
ENCODING 90
SWIDTH 625 0
DWIDTH 20 0
BBX 26 23 0 0
BITMAP
00FFFF80
00FFFF80
00FFFF80
00000F00
00001E00
00003C00
0000F000
0001E000
0003C000
00070000
000F0000
001E0000
00780000
00F00000
00E00000
03C00000
07800000
0F000000
3C000000
78000000
7FFFF000
FFFFE000
FFFFE000
ENDCHAR
STARTCHAR bracketleft
ENCODING 91
SWIDTH 281 0
DWIDTH 9 0
BBX 16 30 1 -7
BITMAP
003F
007E
007E
0070
00E0
00E0
00E0
01C0
01C0
01C0
0380
0380
0380
0700
0700
0700
0E00
0E00
0E00
1C00
1C00
1C00
3800
3800
3800
7000
7000
7E00
FC00
FC00
ENDCHAR
STARTCHAR backslash
ENCODING 92
SWIDTH 281 0
DWIDTH 9 0
BBX 16 23 -1 0
BITMAP
01C0
01C0
01C0
01C0
01C0
01C0
0380
01C0
01C0
0380
01C0
01C0
0380
0380
01C0
0380
0380
01C0
0380
0380
01C0
0380
0380
ENDCHAR
STARTCHAR bracketright
ENCODING 93
SWIDTH 281 0
DWIDTH 9 0
BBX 16 30 0 -7
BITMAP
003F
007E
007E
000E
001C
001C
001C
0038
0038
0038
0070
0070
0070
00E0
00E0
00E0
01C0
01C0
01C0
0380
0380
0380
0700
0700
0700
0E00
0E00
7E00
FC00
FC00
ENDCHAR
STARTCHAR asciicircum
ENCODING 94
SWIDTH 468 0
DWIDTH 15 0
BBX 14 5 0 18
BITMAP
07C0
0FE0
1EF0
7070
C018
ENDCHAR
STARTCHAR underscore
ENCODING 95
SWIDTH 562 0
DWIDTH 18 0
BBX 18 2 -1 -3
BITMAP
FFFFC0
FFFFC0
ENDCHAR
STARTCHAR quoteleft
ENCODING 96
SWIDTH 343 0
DWIDTH 11 0
BBX 8 4 1 19
BITMAP
7C
1E
0E
02
ENDCHAR
STARTCHAR a
ENCODING 97
SWIDTH 562 0
DWIDTH 18 0
BBX 22 16 0 0
BITMAP
007F80
01FFE0
0381C0
0700E0
0000E0
0003C0
01FFC0
07FDC0
1E0380
1C0380
380380
700700
700F00
381F80
7FF780
1FC380
ENDCHAR
STARTCHAR b
ENCODING 98
SWIDTH 562 0
DWIDTH 18 0
BBX 22 23 1 0
BITMAP
01C000
01C000
01C000
038000
038000
038000
070000
073F00
07FFC0
0FC7C0
0F01C0
0F01E0
1C01C0
1C01C0
1C01C0
380380
380380
380380
780F00
780E00
7E3E00
FFF800
E7E000
ENDCHAR
STARTCHAR c
ENCODING 99
SWIDTH 500 0
DWIDTH 16 0
BBX 20 16 0 0
BITMAP
007F80
01FFE0
07C3E0
0700E0
0F00E0
1C0000
1C0000
1C0000
380000
380000
380000
780700
380700
3E1F00
3FFC00
0FF000
ENDCHAR
STARTCHAR d
ENCODING 100
SWIDTH 562 0
DWIDTH 18 0
BBX 22 23 0 0
BITMAP
00001C
00001C
00001C
000038
000038
000038
000070
007E70
01FFF0
07C7E0
0701E0
0F01E0
1C01C0
1C01C0
1C01C0
380380
380380
380380
780F00
380F00
3E3F00
3FFE00
0FCE00
ENDCHAR
STARTCHAR e
ENCODING 101
SWIDTH 531 0
DWIDTH 17 0
BBX 20 16 0 0
BITMAP
007F00
01FFC0
07C7C0
0701C0
0F01E0
1C01C0
1FFFC0
1FFFC0
380000
380000
380000
780F00
380E00
3E3E00
3FF800
0FE000
ENDCHAR
STARTCHAR f
ENCODING 102
SWIDTH 281 0
DWIDTH 9 0
BBX 16 23 -1 0
BITMAP
0007
001F
001C
0070
0070
0070
00E0
07FC
07FC
01C0
01C0
01C0
0380
0380
0380
0700
0700
0700
0E00
0E00
0E00
1C00
1C00
ENDCHAR
STARTCHAR g
ENCODING 103
SWIDTH 562 0
DWIDTH 18 0
BBX 22 23 0 -7
BITMAP
001F9C
007FFC
00F8FC
01C078
03C078
038038
070070
070070
070070
0E00E0
0E00E0
0F01E0
0E03C0
0F8FC0
07FFC0
03F380
000380
000380
380E00
380E00
1E3C00
1FF000
07C000
ENDCHAR
STARTCHAR h
ENCODING 104
SWIDTH 562 0
DWIDTH 18 0
BBX 21 23 1 0
BITMAP
01C000
01C000
01C000
038000
038000
038000
070000
073F00
077FC0
0F8780
0F03C0
0E01C0
1C0380
1C0380
1C0380
380700
380700
380700
700E00
700E00
700E00
E01C00
E01C00
ENDCHAR
STARTCHAR i
ENCODING 105
SWIDTH 218 0
DWIDTH 7 0
BBX 10 23 1 0
BITMAP
01C0
01C0
01C0
0000
0000
0000
0000
0700
0700
0E00
0E00
0E00
1C00
1C00
1C00
3800
3800
3800
7000
7000
7000
E000
E000
ENDCHAR
STARTCHAR j
ENCODING 106
SWIDTH 218 0
DWIDTH 7 0
BBX 15 30 -1 -7
BITMAP
000E
001C
001C
0000
0000
0000
0000
0070
0070
0070
00E0
00E0
00E0
01C0
01C0
01C0
0380
0380
0380
0700
0700
0700
0E00
0E00
0E00
1C00
1C00
3C00
F000
E000
ENDCHAR
STARTCHAR k
ENCODING 107
SWIDTH 500 0
DWIDTH 16 0
BBX 21 23 1 0
BITMAP
01C000
01C000
01C000
038000
038000
038000
070000
070380
070700
0E1C00
0E3800
0E7000
1DC000
1FC000
1FE000
3DE000
38F000
387000
70F000
707800
703C00
E03800
E03C00
ENDCHAR
STARTCHAR l
ENCODING 108
SWIDTH 218 0
DWIDTH 7 0
BBX 10 23 1 0
BITMAP
01C0
01C0
01C0
0380
0380
0380
0700
0700
0700
0E00
0E00
0E00
1C00
1C00
1C00
3800
3800
3800
7000
7000
7000
E000
E000
ENDCHAR
STARTCHAR m
ENCODING 109
SWIDTH 843 0
DWIDTH 27 0
BBX 28 16 1 0
BITMAP
073E0F80
077F9FE0
0F8F63C0
0F07C1E0
0E0380E0
1C0701C0
1C0701C0
1C0701C0
380E0380
380E0380
380E0380
701C0700
701C0700
701C0700
E0380E00
E0380E00
ENDCHAR
STARTCHAR n
ENCODING 110
SWIDTH 562 0
DWIDTH 18 0
BBX 19 16 1 0
BITMAP
073F00
077FC0
0F8780
0F03C0
0E01C0
1C0380
1C0380
1C0380
380700
380700
380700
700E00
700E00
700E00
E01C00
E01C00
ENDCHAR
STARTCHAR o
ENCODING 111
SWIDTH 562 0
DWIDTH 18 0
BBX 21 16 0 0
BITMAP
007F80
01FFE0
07C3E0
0700E0
0F00F0
1C00E0
1C00E0
1C00E0
3801C0
3801C0
3801C0
780780
380700
3E1F00
3FFC00
0FF000
ENDCHAR
STARTCHAR p
ENCODING 112
SWIDTH 562 0
DWIDTH 18 0
BBX 22 22 1 -6
BITMAP
01CFC0
01FFF0
03F1F0
03C070
03C078
070070
070070
070070
0E00E0
0E00E0
0E00E0
1E03C0
1E0380
1F8F80
3FFE00
39F800
380000
700000
700000
700000
E00000
E00000
ENDCHAR
STARTCHAR q
ENCODING 113
SWIDTH 562 0
DWIDTH 18 0
BBX 22 22 0 -6
BITMAP
001F9C
007FFC
01F1F8
01C078
03C078
070070
070070
070070
0E00E0
0E00E0
0E00E0
1E03C0
0E03C0
0F8FC0
0FFF80
03F380
000380
000700
000700
000700
000E00
000E00
ENDCHAR
STARTCHAR r
ENCODING 114
SWIDTH 343 0
DWIDTH 11 0
BBX 14 16 1 0
BITMAP
073C
077C
0F80
0F00
0E00
1C00
1C00
1C00
3800
3800
3800
7000
7000
7000
E000
E000
ENDCHAR
STARTCHAR s
ENCODING 115
SWIDTH 500 0
DWIDTH 16 0
BBX 19 16 0 0
BITMAP
00FE00
03FF80
070700
0E0380
0E0000
1C0000
0E0000
0FFC00
07FE00
000E00
000700
700E00
700E00
381C00
7FF800
1FE000
ENDCHAR
STARTCHAR t
ENCODING 116
SWIDTH 281 0
DWIDTH 9 0
BBX 16 22 -1 0
BITMAP
0038
0038
0070
0070
0070
00E0
07FC
07FC
01C0
01C0
01C0
0380
0380
0380
0700
0700
0700
0E00
0E00
0700
0F80
0380
ENDCHAR
STARTCHAR u
ENCODING 117
SWIDTH 562 0
DWIDTH 18 0
BBX 19 16 1 0
BITMAP
0700E0
0700E0
0E01C0
0E01C0
0E01C0
1C0380
1C0380
1C0380
380700
380700
380700
700E00
781E00
3C3E00
7FDC00
1F9C00
ENDCHAR
STARTCHAR v
ENCODING 118
SWIDTH 468 0
DWIDTH 15 0
BBX 20 16 -1 0
BITMAP
070070
070070
0E00E0
0701C0
0701C0
070700
070700
038E00
071C00
03B800
03B800
07F000
03E000
03E000
038000
038000
ENDCHAR
STARTCHAR w
ENCODING 119
SWIDTH 718 0
DWIDTH 23 0
BBX 28 16 -1 0
BITMAP
0701C070
0701C070
0E0380E0
0707C1C0
0707C1C0
071DC700
071DC700
071DC700
0771DC00
0771DC00
0771DC00
07C1F000
07C1F000
0380E000
0701C000
0701C000
ENDCHAR
STARTCHAR x
ENCODING 120
SWIDTH 468 0
DWIDTH 15 0
BBX 20 16 -1 0
BITMAP
070070
0780F0
0783C0
03C780
01C700
03DE00
01FC00
00F800
01F000
03F800
07BC00
0E3800
1E3C00
3C1E00
F01E00
E00E00
ENDCHAR
STARTCHAR y
ENCODING 121
SWIDTH 468 0
DWIDTH 15 0
BBX 22 23 -1 -7
BITMAP
01C01C
01C01C
01C01C
01C070
01C070
00E0E0
01C1C0
00E380
00E380
00EE00
00EE00
007C00
00F800
007000
007000
01C000
01C000
038000
070000
0E0000
1E0000
F80000
E00000
ENDCHAR
STARTCHAR z
ENCODING 122
SWIDTH 500 0
DWIDTH 16 0
BBX 19 16 0 0
BITMAP
07FFC0
07FFC0
0FFF80
000780
000F00
003C00
007800
00F000
01C000
03C000
078000
1E0000
3C0000
7FFE00
FFFC00
FFFC00
ENDCHAR
STARTCHAR braceleft
ENCODING 123
SWIDTH 343 0
DWIDTH 11 0
BBX 18 25 0 -1
BITMAP
0003C0
000FC0
001E00
003C00
003800
007000
007000
007000
00E000
00C000
01C000
070000
0E0000
070000
070000
030000
038000
070000
070000
070000
0E0000
0F0000
078000
0FC000
03C000
ENDCHAR
STARTCHAR bar
ENCODING 124
SWIDTH 218 0
DWIDTH 7 0
BBX 10 23 1 0
BITMAP
01C0
01C0
01C0
0380
0380
0380
0700
0700
0700
0E00
0E00
0E00
1C00
1C00
1C00
3800
3800
3800
7000
7000
7000
E000
E000
ENDCHAR
STARTCHAR braceright
ENCODING 125
SWIDTH 343 0
DWIDTH 11 0
BBX 18 25 0 -1
BITMAP
00F000
00FC00
007800
003C00
001C00
003800
003800
003800
007000
007000
003800
007800
003C00
003800
00E000
00C000
01C000
038000
038000
038000
070000
0F0000
1E0000
FC0000
F00000
ENDCHAR
STARTCHAR asciitilde
ENCODING 126
SWIDTH 593 0
DWIDTH 19 0
BBX 17 5 1 18
BITMAP
1F0380
3F8380
79E780
E0FE00
E07C00
ENDCHAR
STARTCHAR nbsp
ENCODING 154
SWIDTH 281 0
DWIDTH 9 0
BBX 0 0 -1 0
BITMAP
ENDCHAR
STARTCHAR degree
ENCODING 156
SWIDTH 343 0
DWIDTH 11 0
BBX 12 9 0 14
BITMAP
0380
1FC0
18C0
3060
60C0
60C0
3180
7F00
1C00
ENDCHAR
STARTCHAR twosuperior
ENCODING 157
SWIDTH 281 0
DWIDTH 9 0
BBX 11 11 0 12
BITMAP
0780
0FC0
1860
00C0
0380
0F00
3800
3000
6000
FF00
FF00
ENDCHAR
STARTCHAR cyr-yo
ENCODING 163
SWIDTH 531 0
DWIDTH 17 0
BBX 21 19 0 0
BITMAP
0060C0
0060C0
000000
007F00
01FFC0
07C7C0
0701C0
0F01E0
1C01C0
1FFFC0
1FFFC0
380000
380000
380000
780F00
380E00
3E3E00
3FF800
0FE000
ENDCHAR
STARTCHAR cyr-Yo
ENCODING 179
SWIDTH 656 0
DWIDTH 21 0
BBX 25 26 2 0
BITMAP
00180C00
00180C00
00000000
01FFFF00
01FFFF00
01FFFF00
03800000
03800000
03800000
07000000
07000000
07000000
0FFFE000
0FFFE000
0FFFE000
1C000000
1C000000
1C000000
38000000
38000000
38000000
70000000
70000000
7FFFC000
FFFF8000
FFFF8000
ENDCHAR
STARTCHAR copyright
ENCODING 191
SWIDTH 750 0
DWIDTH 24 0
BBX 29 23 0 0
BITMAP
0000F000
0007FE00
001E0780
00700380
00E001C0
00C000C0
0303E0C0
0307F0C0
020E3040
0C1800C0
0C1800C0
0C1800C0
18300180
18300180
0838C100
183F8600
181F0600
0C000C00
1C003800
0E007000
0781E000
03FF0000
00780000
ENDCHAR
STARTCHAR cyr-yu
ENCODING 192
SWIDTH 718 0
DWIDTH 23 0
BBX 24 16 1 0
BITMAP
0707F0
071FFC
0E7C7C
0E701C
0EF01E
1DC01C
1DC01C
1FC01C
3F8038
3B8038
3B8038
7780F0
7380E0
73E3E0
E3FF80
E0FE00
ENDCHAR
STARTCHAR cyr-a
ENCODING 193
SWIDTH 562 0
DWIDTH 18 0
BBX 22 16 0 0
BITMAP
007F80
01FFE0
0381C0
0700E0
0000E0
0003C0
01FFC0
07FDC0
1E0380
1C0380
380380
700700
700F00
381F80
7FF780
1FC380
ENDCHAR
STARTCHAR cyr-be
ENCODING 194
SWIDTH 562 0
DWIDTH 18 0
BBX 23 23 0 0
BITMAP
00000C
00007C
0007F8
007FC0
00F800
01F000
038000
073F00
07FFC0
0FC3C0
0F81E0
0F00E0
1C00E0
1C00E0
1C00E0
3801C0
3801C0
3801C0
380700
3C0F00
1E1E00
1FF800
07E000
ENDCHAR
STARTCHAR cyr-tse
ENCODING 195
SWIDTH 593 0
DWIDTH 19 0
BBX 22 19 1 -3
BITMAP
038070
038070
0700E0
0700E0
0700E0
0E01C0
0E01C0
0E01C0
1C0380
1C0380
1C0380
380700
380700
380700
7FFF80
7FFF80
000380
000700
000700
ENDCHAR
STARTCHAR cyr-de
ENCODING 196
SWIDTH 687 0
DWIDTH 22 0
BBX 26 19 0 -3
BITMAP
003FFE00
003FFE00
00701C00
00701C00
00701C00
00E03800
00E03800
00E03800
01C07000
01C07000
01C07000
0380E000
0380E000
0700E000
7FFFF800
7FFFF800
70003800
E0007000
E0007000
ENDCHAR
STARTCHAR cyr-ie
ENCODING 197
SWIDTH 531 0
DWIDTH 17 0
BBX 20 16 0 0
BITMAP
007F00
01FFC0
07C7C0
0701C0
0F01E0
1C01C0
1FFFC0
1FFFC0
380000
380000
380000
780F00
380E00
3E3E00
3FF800
0FE000
ENDCHAR
STARTCHAR cyr-ef
ENCODING 198
SWIDTH 656 0
DWIDTH 21 0
BBX 26 23 0 -6
BITMAP
0001C000
001FFC00
007FFF00
01F39F00
01C38700
03C38780
07070700
07070700
07070700
0E0E0E00
0E0E0E00
0E0E0E00
1E1C3C00
0E1C3800
0F9CF800
0FFFE000
03FF8000
00380000
00700000
00700000
00700000
00E00000
00E00000
ENDCHAR
STARTCHAR cyr-ghe
ENCODING 199
SWIDTH 500 0
DWIDTH 16 0
BBX 18 16 1 0
BITMAP
07FFC0
07FFC0
0E0000
0E0000
0E0000
1C0000
1C0000
1C0000
380000
380000
380000
700000
700000
700000
E00000
E00000
ENDCHAR
STARTCHAR cyr-kha
ENCODING 200
SWIDTH 468 0
DWIDTH 15 0
BBX 20 16 -1 0
BITMAP
070070
0780F0
0783C0
03C780
01C700
03DE00
01FC00
00F800
01F000
03F800
07BC00
0E3800
1E3C00
3C1E00
F01E00
E00E00
ENDCHAR
STARTCHAR cyr-i
ENCODING 201
SWIDTH 562 0
DWIDTH 18 0
BBX 19 16 1 0
BITMAP
0700E0
0700E0
0E01C0
0E03C0
0E07C0
1C1F80
1C3F80
1C7B80
39E700
3BC700
3F8700
7E0E00
7C0E00
780E00
E01C00
E01C00
ENDCHAR
STARTCHAR cyr-i-short
ENCODING 202
SWIDTH 562 0
DWIDTH 18 0
BBX 20 20 1 0
BITMAP
007380
007380
003F00
003C00
0700E0
0700E0
0E01C0
0E03C0
0E07C0
1C1F80
1C3F80
1C7B80
39E700
3BC700
3F8700
7E0E00
7C0E00
780E00
E01C00
E01C00
ENDCHAR
STARTCHAR cyr-ka
ENCODING 203
SWIDTH 500 0
DWIDTH 16 0
BBX 19 16 1 0
BITMAP
070380
070700
0E1C00
0E3800
0E7000
1DC000
1FC000
1FE000
3DE000
38F000
387000
70F000
707800
703C00
E03800
E03C00
ENDCHAR
STARTCHAR cyr-el
ENCODING 204
SWIDTH 562 0
DWIDTH 18 0
BBX 20 16 0 0
BITMAP
00FFF0
00FFF0
01C0E0
01C0E0
01C0E0
0381C0
0381C0
0381C0
070380
070380
070380
0E0700
0E0700
0E0700
FC0E00
F80E00
ENDCHAR
STARTCHAR cyr-em
ENCODING 205
SWIDTH 750 0
DWIDTH 24 0
BBX 25 16 1 0
BITMAP
07000380
07800780
0F801F00
0FC03F00
0FE07F00
1DE1EE00
1CF3CE00
1C7F8E00
387E1C00
383C1C00
38181C00
70003800
70003800
70003800
E0007000
E0007000
ENDCHAR
STARTCHAR cyr-en
ENCODING 206
SWIDTH 562 0
DWIDTH 18 0
BBX 19 16 1 0
BITMAP
0700E0
0700E0
0E01C0
0E01C0
0E01C0
1C0380
1C0380
1FFF80
3FFF00
380700
380700
700E00
700E00
700E00
E01C00
E01C00
ENDCHAR
STARTCHAR cyr-o
ENCODING 207
SWIDTH 562 0
DWIDTH 18 0
BBX 21 16 0 0
BITMAP
007F80
01FFE0
07C3E0
0700E0
0F00F0
1C00E0
1C00E0
1C00E0
3801C0
3801C0
3801C0
780780
380700
3E1F00
3FFC00
0FF000
ENDCHAR
STARTCHAR cyr-pe
ENCODING 208
SWIDTH 562 0
DWIDTH 18 0
BBX 19 16 1 0
BITMAP
07FFE0
07FFE0
0E01C0
0E01C0
0E01C0
1C0380
1C0380
1C0380
380700
380700
380700
700E00
700E00
700E00
E01C00
E01C00
ENDCHAR
STARTCHAR cyr-ya
ENCODING 209
SWIDTH 531 0
DWIDTH 17 0
BBX 19 16 0 0
BITMAP
01FFE0
03FFE0
0F01C0
0E01C0
0E01C0
1C0380
1E0380
0FFF80
0FFF00
01E700
03C700
0F0E00
1E0E00
3C0E00
F01C00
E01C00
ENDCHAR
STARTCHAR cyr-er
ENCODING 210
SWIDTH 562 0
DWIDTH 18 0
BBX 22 22 1 -6
BITMAP
01CFC0
01FFF0
03F1F0
03C070
03C078
070070
070070
070070
0E00E0
0E00E0
0E00E0
1E03C0
1E0380
1F8F80
3FFE00
39F800
380000
700000
700000
700000
E00000
E00000
ENDCHAR
STARTCHAR cyr-es
ENCODING 211
SWIDTH 500 0
DWIDTH 16 0
BBX 20 16 0 0
BITMAP
007F80
01FFE0
07C3E0
0700E0
0F00E0
1C0000
1C0000
1C0000
380000
380000
380000
780700
380700
3E1F00
3FFC00
0FF000
ENDCHAR
STARTCHAR cyr-te
ENCODING 212
SWIDTH 562 0
DWIDTH 18 0
BBX 21 16 0 0
BITMAP
07FFF8
07FFF8
001C00
001C00
001C00
003800
003800
003800
007000
007000
007000
00E000
00E000
00E000
01C000
01C000
ENDCHAR
STARTCHAR cyr-u
ENCODING 213
SWIDTH 468 0
DWIDTH 15 0
BBX 22 23 -1 -7
BITMAP
01C01C
01C01C
01C01C
01C070
01C070
00E0E0
01C1C0
00E380
00E380
00EE00
00EE00
007C00
00F800
007000
007000
01C000
01C000
038000
070000
0E0000
1E0000
F80000
E00000
ENDCHAR
STARTCHAR cyr-zhe
ENCODING 214
SWIDTH 781 0
DWIDTH 25 0
BBX 30 16 -1 0
BITMAP
01C0E070
01E0E0F0
01E1C3C0
00F1C780
0079CF00
007BBC00
003FF800
003FF800
00F77800
01E73C00
03C71E00
0F0E1E00
1E0E0F00
3C0E0780
F01C0780
E01C0380
ENDCHAR
STARTCHAR cyr-ve
ENCODING 215
SWIDTH 562 0
DWIDTH 18 0
BBX 19 16 1 0
BITMAP
07FF00
07FF80
0E0780
0E0380
0E0380
1C0700
1FFE00
1FFE00
380E00
380700
380700
700E00
700E00
701C00
FFF800
FFF000
ENDCHAR
STARTCHAR cyr-ierik
ENCODING 216
SWIDTH 562 0
DWIDTH 18 0
BBX 20 16 1 0
BITMAP
070000
070000
0E0000
0E0000
0E0000
1C0000
1C0000
1FFF00
3FFF00
380780
380380
700700
700700
700F00
FFFC00
FFF800
ENDCHAR
STARTCHAR cyr-iery
ENCODING 217
SWIDTH 718 0
DWIDTH 23 0
BBX 24 16 1 0
BITMAP
070007
070007
0E000E
0E000E
0E000E
1C001C
1C001C
1FFF1C
3FFF38
3807B8
3803B8
700770
700770
700F70
FFFCE0
FFF8E0
ENDCHAR
STARTCHAR cyr-z
ENCODING 218
SWIDTH 500 0
DWIDTH 16 0
BBX 19 16 0 0
BITMAP
00FF00
01FF80
078700
070380
000380
000700
007E00
007E00
001E00
000700
000700
700E00
700E00
381C00
7FF800
3FE000
ENDCHAR
STARTCHAR cyr-sha
ENCODING 219
SWIDTH 781 0
DWIDTH 25 0
BBX 26 16 1 0
BITMAP
070381C0
070381C0
0E070380
0E070380
0E070380
1C0E0700
1C0E0700
1C0E0700
381C0E00
381C0E00
381C0E00
70381C00
70381C00
70381C00
FFFFF800
FFFFF800
ENDCHAR
STARTCHAR cyr-e-rev
ENCODING 220
SWIDTH 531 0
DWIDTH 17 0
BBX 20 16 0 0
BITMAP
00FF00
03FFC0
0F87C0
0E01C0
0001E0
0001C0
0001C0
007FC0
00FF80
000380
000380
000F00
700E00
7C3E00
7FF800
1FE000
ENDCHAR
STARTCHAR cyr-shcha
ENCODING 221
SWIDTH 812 0
DWIDTH 26 0
BBX 29 19 1 -3
BITMAP
0381C0E0
0381C0E0
070381C0
070381C0
070381C0
0E070380
0E070380
0E070380
1C0E0700
1C0E0700
1C0E0700
381C0E00
381C0E00
381C0E00
7FFFFF00
7FFFFF00
00000700
00000E00
00000E00
ENDCHAR
STARTCHAR cyr-che
ENCODING 222
SWIDTH 562 0
DWIDTH 18 0
BBX 19 16 1 0
BITMAP
0700E0
0700E0
0E01C0
0E01C0
0E01C0
1C0380
1C0380
1FFF80
1FFF00
000700
000700
000E00
000E00
000E00
001C00
001C00
ENDCHAR
STARTCHAR cyr-ier
ENCODING 223
SWIDTH 625 0
DWIDTH 20 0
BBX 23 16 0 0
BITMAP
07E000
07E000
01C000
01C000
01C000
038000
038000
03FFE0
07FFE0
0700F0
070070
0E00E0
0E00E0
0E01E0
1FFF80
1FFF00
ENDCHAR
STARTCHAR cyr-Yu
ENCODING 224
SWIDTH 906 0
DWIDTH 29 0
BBX 32 23 1 0
BITMAP
01C01F00
01C0FFE0
01C1FFF0
0387C1F0
038F0078
039E003C
07380038
07380038
0770001C
0EE00038
0FE00038
0FE00038
1FC00070
1DC00070
1DC00070
39C001C0
39C001C0
39E003C0
71E00F00
70F83E00
707FFC00
E07FF000
E00F8000
ENDCHAR
STARTCHAR cyr-A
ENCODING 225
SWIDTH 687 0
DWIDTH 22 0
BBX 28 23 0 0
BITMAP
0001F000
0001F000
0003F800
0007F000
00077000
000F7800
001C7000
001C7000
003C7800
00707000
00F07800
00E03800
01C07000
03C07800
03803800
07FFF000
0FFFF800
0FFFF800
3C007800
38003800
38003800
F0007800
E0003800
ENDCHAR
STARTCHAR cyr-Be
ENCODING 226
SWIDTH 656 0
DWIDTH 21 0
BBX 24 23 2 0
BITMAP
01FFFE
01FFFE
01FFFE
038000
038000
038000
070000
070000
070000
0FFF80
0FFFC0
0FFFE0
1C01E0
1C00E0
1C0070
3800E0
3800E0
3800E0
7003C0
700780
7FFF80
FFFE00
FFF800
ENDCHAR
STARTCHAR cyr-Tse
ENCODING 227
SWIDTH 750 0
DWIDTH 24 0
BBX 28 26 2 -3
BITMAP
00E001C0
00E001C0
00E001C0
01C00380
01C00380
01C00380
03800700
03800700
03800700
07000E00
07000E00
07000E00
0E001C00
0E001C00
0E001C00
1C003800
1C003800
1C003800
38007000
38007000
3FFFFC00
7FFFF800
7FFFF800
00003800
00007000
00007000
ENDCHAR
STARTCHAR cyr-De
ENCODING 228
SWIDTH 718 0
DWIDTH 23 0
BBX 29 26 0 -3
BITMAP
0007FFC0
0007FFC0
0007FFC0
000E0380
000E0380
000E0380
001C0700
001C0700
001C0700
00380E00
00380E00
00380E00
00701C00
00701C00
00701C00
00E03800
00E03800
00E03800
03C07000
07807000
3FFFFE00
7FFFFC00
7FFFFC00
70001C00
E0003800
E0003800
ENDCHAR
STARTCHAR cyr-Ie
ENCODING 229
SWIDTH 656 0
DWIDTH 21 0
BBX 24 23 2 0
BITMAP
01FFFF
01FFFF
01FFFF
038000
038000
038000
070000
070000
070000
0FFFE0
0FFFE0
0FFFE0
1C0000
1C0000
1C0000
380000
380000
380000
700000
700000
7FFFC0
FFFF80
FFFF80
ENDCHAR
STARTCHAR cyr-Ef
ENCODING 230
SWIDTH 843 0
DWIDTH 27 0
BBX 30 23 1 0
BITMAP
0001FC00
000FFF80
001FFFC0
007CE7C0
00F0E1E0
01E0E0F0
0381C0E0
0381C0E0
0701C070
0E0380E0
0E0380E0
0E0380E0
1C0701C0
0E070380
0E070380
1E0E0F00
0F0E1E00
07CE7C00
07FFF000
03FFE000
007F0000
00380000
00380000
ENDCHAR
STARTCHAR cyr-Ghe
ENCODING 231
SWIDTH 656 0
DWIDTH 21 0
BBX 24 23 2 0
BITMAP
01FFFF
01FFFF
01FFFF
038000
038000
038000
070000
070000
070000
0E0000
0E0000
0E0000
1C0000
1C0000
1C0000
380000
380000
380000
700000
700000
700000
E00000
E00000
ENDCHAR
STARTCHAR cyr-Kha
ENCODING 232
SWIDTH 656 0
DWIDTH 21 0
BBX 27 23 0 0
BITMAP
00E001C0
00F003C0
00700380
00F00F00
00781E00
003C3C00
00387000
003CF000
001FE000
001F8000
000F0000
000F0000
003F0000
007F8000
00738000
01E78000
03C3C000
0781E000
0E01C000
1E01E000
3C00F000
F000F000
E0007000
ENDCHAR
STARTCHAR cyr-I
ENCODING 233
SWIDTH 750 0
DWIDTH 24 0
BBX 26 23 2 0
BITMAP
01C001C0
01C001C0
01C001C0
03800380
03800780
03800F80
07003F00
07007F00
0700F700
0E03CE00
0E078E00
0E0F0E00
1C3C1C00
1C781C00
1CF01C00
3BC03800
3F803800
3F003800
7C007000
78007000
70007000
E000E000
E000E000
ENDCHAR
STARTCHAR cyr-I-short
ENCODING 234
SWIDTH 750 0
DWIDTH 24 0
BBX 27 26 2 0
BITMAP
000F1E00
0007FC00
0003F800
01C001C0
01C001C0
01C001C0
03800380
03800780
03800F80
07003F00
07007F00
0700F700
0E03CE00
0E078E00
0E0F0E00
1C3C1C00
1C781C00
1CF01C00
3BC03800
3F803800
3F003800
7C007000
78007000
70007000
E000E000
E000E000
ENDCHAR
STARTCHAR cyr-Ka
ENCODING 235
SWIDTH 656 0
DWIDTH 21 0
BBX 26 23 1 0
BITMAP
01C00F00
01C01E00
01C03C00
0380F000
0381E000
0383C000
070F0000
071E0000
073C0000
0EF00000
0FF00000
0FF80000
1F780000
1E3C0000
1C1E0000
381E0000
380F0000
38078000
70078000
7003C000
7001E000
E001E000
E000E000
ENDCHAR
STARTCHAR cyr-El
ENCODING 236
SWIDTH 656 0
DWIDTH 21 0
BBX 24 23 1 0
BITMAP
003FFF
003FFF
003FFF
00700E
00700E
00700E
00E01C
00E01C
00E01C
01C038
01C038
01C038
038070
038070
038070
0700E0
0700E0
0700E0
0E01C0
0E01C0
0E01C0
FC0380
F80380
ENDCHAR
STARTCHAR cyr-Em
ENCODING 237
SWIDTH 812 0
DWIDTH 26 0
BBX 28 23 2 0
BITMAP
01E000F0
01F001F0
01F001F0
03E003E0
03F007E0
03F007E0
07E00FC0
07F01FC0
07701DC0
0EE03B80
0EF07B80
0E707380
1CE0E700
1CF1E700
1C71C700
38E38E00
38F78E00
38770E00
70EE1C00
70FE1C00
707C1C00
E0F83800
E0F83800
ENDCHAR
STARTCHAR cyr-En
ENCODING 238
SWIDTH 718 0
DWIDTH 23 0
BBX 25 23 2 0
BITMAP
01C00380
01C00380
01C00380
03800700
03800700
03800700
07000E00
07000E00
07000E00
0FFFFC00
0FFFFC00
0FFFFC00
1C003800
1C003800
1C003800
38007000
38007000
38007000
7000E000
7000E000
7000E000
E001C000
E001C000
ENDCHAR
STARTCHAR cyr-O
ENCODING 239
SWIDTH 781 0
DWIDTH 25 0
BBX 29 23 1 0
BITMAP
0001F800
000FFF00
001FFF80
007C0F80
00F003C0
01E001E0
038001C0
038001C0
070000E0
0E0001C0
0E0001C0
0E0001C0
1C000380
1C000380
1C000380
1C000E00
1C000E00
1E001E00
1E007800
0F81F000
07FFE000
07FF8000
00FC0000
ENDCHAR
STARTCHAR cyr-Pe
ENCODING 240
SWIDTH 718 0
DWIDTH 23 0
BBX 25 23 2 0
BITMAP
01FFFF80
01FFFF80
01FFFF80
03800700
03800700
03800700
07000E00
07000E00
07000E00
0E001C00
0E001C00
0E001C00
1C003800
1C003800
1C003800
38007000
38007000
38007000
7000E000
7000E000
7000E000
E001C000
E001C000
ENDCHAR
STARTCHAR cyr-Ya
ENCODING 241
SWIDTH 656 0
DWIDTH 21 0
BBX 24 23 1 0
BITMAP
007FFF
00FFFF
01FFFF
03800E
03800E
03800E
07001C
07001C
07001C
0F0038
0FFFF8
07FFF8
07FFF0
001E70
003C70
00F0E0
01E0E0
03C0E0
0F01C0
1E01C0
3C01C0
F00380
E00380
ENDCHAR
STARTCHAR cyr-Er
ENCODING 242
SWIDTH 656 0
DWIDTH 21 0
BBX 24 23 2 0
BITMAP
01FFF0
01FFFC
01FFFE
03803C
03801E
03800E
07001C
07001C
07001C
0E0078
0E00F0
0FFFF0
1FFFC0
1FFF00
1C0000
380000
380000
380000
700000
700000
700000
E00000
E00000
ENDCHAR
STARTCHAR cyr-Es
ENCODING 243
SWIDTH 718 0
DWIDTH 23 0
BBX 28 23 1 0
BITMAP
0001F800
000FFF00
001FFF80
007C0F80
00F003C0
01E001E0
038001C0
038001C0
07000000
0E000000
0E000000
0E000000
1C000000
1C000000
1C000000
1C000E00
1C000E00
1E001E00
1E007800
0F81F000
07FFE000
07FF8000
00FC0000
ENDCHAR
STARTCHAR cyr-Te
ENCODING 244
SWIDTH 625 0
DWIDTH 20 0
BBX 26 23 0 0
BITMAP
01FFFFC0
01FFFFC0
01FFFFC0
00038000
00038000
00038000
00070000
00070000
00070000
000E0000
000E0000
000E0000
001C0000
001C0000
001C0000
00380000
00380000
00380000
00700000
00700000
00700000
00E00000
00E00000
ENDCHAR
STARTCHAR cyr-U
ENCODING 245
SWIDTH 687 0
DWIDTH 22 0
BBX 28 23 0 0
BITMAP
01C00070
01E000F0
00F001E0
00F00780
00700700
00780F00
00783C00
003C7800
001C7000
003DE000
001FC000
000F8000
001E0000
001C0000
003C0000
00700000
00F00000
00E00000
03800000
07800000
0F000000
7C000000
78000000
ENDCHAR
STARTCHAR cyr-Zhe
ENCODING 246
SWIDTH 968 0
DWIDTH 31 0
BBX 38 23 -1 0
BITMAP
0070070070
00780700F0
003C0701E0
003C0E0780
001E0E0F00
000F0E1E00
000F1C7800
00079CF000
0003DDE000
0003FF8000
0001FF0000
0003FF8000
000F778000
001E73C000
003C71E000
00F0E1E000
01E0E0F000
03C0E07800
0F01C07800
1E01C03C00
3C01C01E00
F003801E00
E003800E00
ENDCHAR
STARTCHAR cyr-Ve
ENCODING 247
SWIDTH 656 0
DWIDTH 21 0
BBX 24 23 2 0
BITMAP
01FFE0
01FFF8
01FFFC
038038
03801C
03801C
070038
070038
070070
0FFFE0
0FFFC0
0FFFE0
1C01E0
1C00E0
1C0070
3800E0
3800E0
3800E0
7003C0
700780
7FFF80
FFFE00
FFF800
ENDCHAR
STARTCHAR cyr-Ierik
ENCODING 248
SWIDTH 718 0
DWIDTH 23 0
BBX 25 23 2 0
BITMAP
01C00000
01C00000
01C00000
03800000
03800000
03800000
07000000
07000000
07000000
0E000000
0FFFF000
0FFFF800
1FFFF800
1C007800
1C003800
38007000
38007000
38007000
7000E000
7001E000
7FFFE000
FFFF8000
FFFF0000
ENDCHAR
STARTCHAR cyr-Iery
ENCODING 249
SWIDTH 812 0
DWIDTH 26 0
BBX 29 23 1 0
BITMAP
01C00038
01C00038
01C00038
03800070
03800070
03800070
070000E0
070000E0
070000E0
0E0001C0
0FFFF1C0
0FFFF9C0
1FFFFB80
1C007B80
1C003B80
38007700
38007700
38007700
7000EE00
7001EE00
7FFFEE00
FFFF9C00
FFFF1C00
ENDCHAR
STARTCHAR cyr-Ze
ENCODING 250
SWIDTH 593 0
DWIDTH 19 0
BBX 24 23 0 0
BITMAP
001FF8
007FFC
00FFFE
01C03C
00001C
00001C
000038
000038
000038
0000E0
007FC0
007FE0
00FFE0
0001F0
000070
0000E0
0000E0
0000E0
7001C0
7803C0
3FFF80
7FFE00
1FFC00
ENDCHAR
STARTCHAR cyr-Sha
ENCODING 251
SWIDTH 906 0
DWIDTH 29 0
BBX 34 23 0 0
BITMAP
01C01C01C0
01C01C01C0
01C01C01C0
0380380380
0380380380
0380380380
0700700700
0700700700
0700700700
0E00E00E00
0E00E00E00
0E00E00E00
1C01C01C00
1C01C01C00
1C01C01C00
3803803800
3803803800
3803803800
7007007000
7007007000
7FFFFFF000
FFFFFFE000
FFFFFFE000
ENDCHAR
STARTCHAR cyr-E-rev
ENCODING 252
SWIDTH 750 0
DWIDTH 24 0
BBX 27 23 1 0
BITMAP
0007E000
003FFC00
007FFE00
01F03E00
03C00F00
03800780
00000700
00000700
00000380
00000700
000FFF00
000FFF00
001FFE00
00000E00
00000E00
00003800
00003800
38007800
7801E000
3E07C000
1FFF8000
1FFE0000
03F00000
ENDCHAR
STARTCHAR cyr-Shcha
ENCODING 253
SWIDTH 968 0
DWIDTH 31 0
BBX 37 26 0 -3
BITMAP
00E00E00E0
00E00E00E0
00E00E00E0
01C01C01C0
01C01C01C0
01C01C01C0
0380380380
0380380380
0380380380
0700700700
0700700700
0700700700
0E00E00E00
0E00E00E00
0E00E00E00
1C01C01C00
1C01C01C00
1C01C01C00
3803803800
3803803800
3FFFFFFE00
7FFFFFFC00
7FFFFFFC00
0000001C00
0000003800
0000003800
ENDCHAR
STARTCHAR cyr-Che
ENCODING 254
SWIDTH 718 0
DWIDTH 23 0
BBX 25 23 2 0
BITMAP
01C00380
01C00380
01C00380
03800700
03800700
03800700
07000E00
07000E00
07800E00
0FFFFC00
07FFFC00
03FFFC00
00003800
00003800
00003800
00007000
00007000
00007000
0000E000
0000E000
0000E000
0001C000
0001C000
ENDCHAR
STARTCHAR cyr-Ier
ENCODING 255
SWIDTH 750 0
DWIDTH 24 0
BBX 29 23 0 0
BITMAP
01FC0000
01FC0000
01FC0000
00380000
00380000
00380000
00700000
00700000
00700000
00E00000
00FFFF00
00FFFF80
01FFFF80
01C00780
01C00380
03800700
03800700
03800700
07000E00
07001E00
07FFFE00
0FFFF800
0FFFF000
ENDCHAR
ENDFONT
